<svg width="154" height="39" viewBox="0 0 154 39" fill="none" xmlns="http://www.w3.org/2000/svg">
<rect x="0.0250244" y="0.5" width="43" height="38" rx="14" fill="#F44321"/>
<path d="M31.525 16C27.525 30 13.525 29 11.025 16" stroke="white" stroke-linecap="round"/>
<path d="M69.121 12.58H70.753C71.441 12.58 72.089 12.572 72.697 12.556C73.321 12.54 73.865 12.524 74.329 12.508L74.209 12.988C73.665 13.004 73.241 13.068 72.937 13.18C72.633 13.276 72.393 13.468 72.217 13.756C72.057 14.028 71.897 14.46 71.737 15.052L68.569 26.956C68.425 27.532 68.361 27.964 68.377 28.252C68.409 28.54 68.553 28.732 68.809 28.828C69.065 28.924 69.457 28.988 69.985 29.02L69.889 29.5C69.441 29.468 68.905 29.452 68.281 29.452C67.673 29.436 67.025 29.428 66.337 29.428C65.617 29.428 64.937 29.436 64.297 29.452C63.657 29.452 63.137 29.468 62.737 29.5L62.833 29.02C63.393 28.988 63.817 28.924 64.105 28.828C64.409 28.732 64.649 28.54 64.825 28.252C65.001 27.964 65.161 27.532 65.305 26.956L68.785 14.02L58.825 29.62H58.297L56.473 14.548L53.305 26.524C53.177 27.036 53.121 27.476 53.137 27.844C53.153 28.212 53.305 28.492 53.593 28.684C53.897 28.876 54.385 28.988 55.057 29.02L54.937 29.5C54.761 29.484 54.521 29.476 54.217 29.476C53.913 29.46 53.593 29.452 53.257 29.452C52.937 29.436 52.633 29.428 52.345 29.428C51.945 29.428 51.537 29.436 51.121 29.452C50.705 29.452 50.361 29.468 50.089 29.5L50.185 29.02C50.745 28.988 51.185 28.876 51.505 28.684C51.825 28.492 52.081 28.212 52.273 27.844C52.481 27.476 52.649 27.036 52.777 26.524L55.825 15.052C55.985 14.46 56.049 14.028 56.017 13.756C55.985 13.468 55.841 13.276 55.585 13.18C55.345 13.068 54.953 13.004 54.409 12.988L54.529 12.508C54.865 12.524 55.289 12.54 55.801 12.556C56.329 12.572 56.873 12.58 57.433 12.58C57.817 12.58 58.201 12.572 58.585 12.556C58.969 12.54 59.305 12.524 59.593 12.508L60.937 25.42L69.121 12.58ZM75.0194 24.22C75.7714 23.932 76.4594 23.636 77.0834 23.332C77.7234 23.012 78.2594 22.676 78.6914 22.324C79.2834 21.796 79.7634 21.18 80.1314 20.476C80.4994 19.756 80.6834 18.972 80.6834 18.124C80.6834 17.756 80.6514 17.516 80.5874 17.404C80.5234 17.292 80.4274 17.236 80.2994 17.236C79.9314 17.236 79.5314 17.412 79.0994 17.764C78.6674 18.116 78.2434 18.604 77.8274 19.228C77.4114 19.836 77.0274 20.524 76.6754 21.292C76.3394 22.06 76.0674 22.868 75.8594 23.716C75.6514 24.564 75.5474 25.404 75.5474 26.236C75.5474 27.084 75.7074 27.684 76.0274 28.036C76.3634 28.372 76.8034 28.54 77.3474 28.54C77.8114 28.54 78.3634 28.388 79.0034 28.084C79.6434 27.78 80.2754 27.228 80.8994 26.428L81.2834 26.62C80.9634 27.148 80.5394 27.66 80.0114 28.156C79.4834 28.652 78.8754 29.06 78.1874 29.38C77.5154 29.684 76.7714 29.836 75.9554 29.836C75.2834 29.836 74.6754 29.708 74.1314 29.452C73.5874 29.196 73.1634 28.82 72.8594 28.324C72.5554 27.812 72.4034 27.188 72.4034 26.452C72.4034 25.668 72.5394 24.836 72.8114 23.956C73.0834 23.06 73.4674 22.188 73.9634 21.34C74.4754 20.492 75.0754 19.724 75.7634 19.036C76.4674 18.348 77.2434 17.804 78.0914 17.404C78.9394 16.988 79.8514 16.78 80.8274 16.78C81.4674 16.78 82.0034 16.932 82.4354 17.236C82.8674 17.524 83.0834 17.972 83.0834 18.58C83.0834 19.204 82.9074 19.788 82.5554 20.332C82.2034 20.876 81.7234 21.372 81.1154 21.82C80.5234 22.268 79.8674 22.668 79.1474 23.02C78.4434 23.372 77.7314 23.676 77.0114 23.932C76.2914 24.188 75.6194 24.396 74.9954 24.556L75.0194 24.22ZM86.6847 29.5H83.7327L86.6127 19.156C86.7567 18.676 86.8047 18.34 86.7567 18.148C86.7087 17.956 86.5647 17.86 86.3247 17.86C86.0207 17.86 85.7407 18.012 85.4847 18.316C85.2287 18.62 84.9647 19.156 84.6927 19.924L84.2847 21.052H83.8287L84.4527 19.252C84.6767 18.612 84.9567 18.116 85.2927 17.764C85.6287 17.396 85.9967 17.14 86.3967 16.996C86.7967 16.852 87.2047 16.78 87.6207 16.78C88.1327 16.78 88.5087 16.884 88.7487 17.092C89.0047 17.3 89.1647 17.572 89.2287 17.908C89.3087 18.244 89.3247 18.612 89.2767 19.012C89.2447 19.396 89.1807 19.772 89.0847 20.14L86.6847 29.5ZM92.8287 17.332C92.4767 17.332 92.1167 17.46 91.7487 17.716C91.3807 17.956 90.9967 18.348 90.5967 18.892C90.1967 19.436 89.7887 20.156 89.3727 21.052C88.9727 21.932 88.5567 23.012 88.1247 24.292C87.6927 25.556 87.2607 27.052 86.8287 28.78L87.4047 25.588C87.9007 23.908 88.3647 22.508 88.7967 21.388C89.2447 20.252 89.6767 19.348 90.0927 18.676C90.5247 17.988 90.9807 17.5 91.4607 17.212C91.9407 16.924 92.4607 16.78 93.0207 16.78C93.5967 16.78 94.0367 16.948 94.3407 17.284C94.6607 17.62 94.8207 18.036 94.8207 18.532C94.8207 18.932 94.7247 19.308 94.5327 19.66C94.3407 19.996 94.0847 20.268 93.7647 20.476C93.4607 20.668 93.1087 20.764 92.7087 20.764C92.3087 20.764 91.9887 20.66 91.7487 20.452C91.5247 20.244 91.4127 19.94 91.4127 19.54C91.4127 19.188 91.4927 18.868 91.6527 18.58C91.8127 18.292 92.0207 18.052 92.2767 17.86C92.5327 17.652 92.8127 17.508 93.1167 17.428C93.0847 17.396 93.0447 17.372 92.9967 17.356C92.9487 17.34 92.8927 17.332 92.8287 17.332ZM102.08 17.26C101.472 17.26 100.872 17.508 100.28 18.004C99.7036 18.5 99.1756 19.18 98.6956 20.044C98.2316 20.892 97.8556 21.86 97.5676 22.948C97.2956 24.02 97.1596 25.132 97.1596 26.284C97.1596 27.116 97.3196 27.716 97.6396 28.084C97.9756 28.452 98.4076 28.636 98.9356 28.636C99.4636 28.636 100.008 28.476 100.568 28.156C101.128 27.836 101.688 27.26 102.248 26.428L102.728 26.62C102.408 27.148 102 27.66 101.504 28.156C101.008 28.652 100.432 29.06 99.7756 29.38C99.1356 29.684 98.4236 29.836 97.6396 29.836C96.5836 29.836 95.7196 29.54 95.0476 28.948C94.3756 28.34 94.0396 27.428 94.0396 26.212C94.0396 25.428 94.1516 24.604 94.3756 23.74C94.6156 22.876 94.9596 22.036 95.4076 21.22C95.8556 20.388 96.3996 19.644 97.0396 18.988C97.6796 18.316 98.4076 17.78 99.2236 17.38C100.04 16.98 100.936 16.78 101.912 16.78C102.728 16.78 103.392 16.988 103.904 17.404C104.432 17.82 104.696 18.356 104.696 19.012C104.696 19.396 104.6 19.772 104.408 20.14C104.232 20.508 103.984 20.812 103.664 21.052C103.344 21.292 102.976 21.412 102.56 21.412C102.192 21.412 101.888 21.3 101.648 21.076C101.424 20.852 101.312 20.556 101.312 20.188C101.312 19.596 101.52 19.084 101.936 18.652C102.368 18.22 102.848 17.94 103.376 17.812C103.232 17.652 103.056 17.524 102.848 17.428C102.656 17.316 102.4 17.26 102.08 17.26ZM108.491 28.732C108.779 28.732 109.107 28.564 109.475 28.228C109.843 27.876 110.219 27.388 110.603 26.764C110.987 26.14 111.355 25.396 111.707 24.532C112.059 23.668 112.363 22.724 112.619 21.7L112.115 24.292C111.651 25.652 111.155 26.74 110.627 27.556C110.115 28.372 109.571 28.956 108.995 29.308C108.435 29.66 107.851 29.836 107.243 29.836C106.379 29.836 105.739 29.572 105.323 29.044C104.907 28.5 104.699 27.78 104.699 26.884C104.699 26.052 104.835 25.18 105.107 24.268C105.379 23.34 105.755 22.436 106.235 21.556C106.731 20.66 107.291 19.86 107.915 19.156C108.539 18.436 109.203 17.86 109.907 17.428C110.611 16.996 111.315 16.78 112.019 16.78C112.563 16.78 112.979 17.012 113.267 17.476C113.555 17.924 113.627 18.612 113.483 19.54L113.219 19.684C113.331 19.012 113.299 18.484 113.123 18.1C112.963 17.716 112.691 17.524 112.307 17.524C111.939 17.524 111.547 17.716 111.131 18.1C110.731 18.484 110.331 19.004 109.931 19.66C109.531 20.316 109.163 21.06 108.827 21.892C108.507 22.724 108.251 23.588 108.059 24.484C107.867 25.38 107.771 26.252 107.771 27.1C107.771 27.692 107.827 28.116 107.939 28.372C108.067 28.612 108.251 28.732 108.491 28.732ZM113.891 17.116C114.467 17.1 115.003 17.068 115.499 17.02C116.011 16.972 116.499 16.892 116.963 16.78L113.867 27.436C113.803 27.628 113.755 27.828 113.723 28.036C113.707 28.228 113.723 28.396 113.771 28.54C113.835 28.668 113.971 28.732 114.179 28.732C114.435 28.732 114.699 28.596 114.971 28.324C115.243 28.052 115.523 27.5 115.811 26.668L116.171 25.588H116.627L116.027 27.34C115.803 27.996 115.523 28.508 115.187 28.876C114.851 29.228 114.491 29.476 114.107 29.62C113.739 29.764 113.371 29.836 113.003 29.836C112.235 29.836 111.691 29.596 111.371 29.116C111.163 28.764 111.083 28.332 111.131 27.82C111.179 27.308 111.283 26.756 111.443 26.164L113.891 17.116ZM127.472 27.46C127.36 27.844 127.328 28.156 127.376 28.396C127.424 28.636 127.584 28.756 127.856 28.756C128.112 28.756 128.36 28.62 128.6 28.348C128.856 28.06 129.128 27.508 129.416 26.692L129.8 25.612H130.256L129.68 27.364C129.472 28.02 129.192 28.524 128.84 28.876C128.504 29.228 128.144 29.476 127.76 29.62C127.376 29.764 127 29.836 126.632 29.836C125.64 29.836 125.048 29.444 124.856 28.66C124.76 28.372 124.728 28.02 124.76 27.604C124.792 27.188 124.888 26.708 125.048 26.164L128.408 13.492C128.552 12.948 128.528 12.548 128.336 12.292C128.144 12.036 127.656 11.908 126.872 11.908L127.04 11.404C128.096 11.388 129.032 11.3 129.848 11.14C130.664 10.964 131.44 10.724 132.176 10.42L127.472 27.46ZM121.856 28.78C122.176 28.78 122.544 28.588 122.96 28.204C123.376 27.804 123.8 27.244 124.232 26.524C124.68 25.788 125.104 24.908 125.504 23.884C125.92 22.86 126.272 21.724 126.56 20.476L126.2 23.068C125.64 24.652 125.08 25.94 124.52 26.932C123.976 27.924 123.392 28.66 122.768 29.14C122.144 29.604 121.44 29.836 120.656 29.836C120.144 29.836 119.68 29.724 119.264 29.5C118.848 29.26 118.52 28.9 118.28 28.42C118.04 27.924 117.92 27.292 117.92 26.524C117.92 25.788 118.04 24.988 118.28 24.124C118.52 23.244 118.864 22.372 119.312 21.508C119.76 20.644 120.312 19.86 120.968 19.156C121.624 18.436 122.352 17.86 123.152 17.428C123.968 16.996 124.856 16.78 125.816 16.78C126.296 16.78 126.672 16.908 126.944 17.164C127.216 17.404 127.368 17.756 127.4 18.22L127.208 18.7C127.144 18.22 127.016 17.876 126.824 17.668C126.632 17.444 126.376 17.332 126.056 17.332C125.576 17.332 125.088 17.524 124.592 17.908C124.112 18.292 123.656 18.82 123.224 19.492C122.792 20.148 122.408 20.892 122.072 21.724C121.736 22.556 121.472 23.428 121.28 24.34C121.088 25.236 120.992 26.116 120.992 26.98C120.992 27.588 121.056 28.044 121.184 28.348C121.328 28.636 121.552 28.78 121.856 28.78ZM139.073 17.26C138.657 17.26 138.233 17.476 137.801 17.908C137.369 18.324 136.961 18.9 136.577 19.636C136.193 20.356 135.841 21.164 135.521 22.06C135.217 22.956 134.977 23.884 134.801 24.844C134.625 25.788 134.537 26.692 134.537 27.556C134.537 28.196 134.617 28.66 134.777 28.948C134.953 29.22 135.209 29.356 135.545 29.356C135.945 29.356 136.361 29.148 136.793 28.732C137.225 28.316 137.633 27.756 138.017 27.052C138.417 26.332 138.769 25.532 139.073 24.652C139.377 23.756 139.617 22.828 139.793 21.868C139.969 20.908 140.057 19.972 140.057 19.06C140.057 18.388 139.969 17.924 139.793 17.668C139.633 17.396 139.393 17.26 139.073 17.26ZM131.705 25.948C131.705 25.228 131.801 24.452 131.993 23.62C132.201 22.788 132.505 21.972 132.905 21.172C133.305 20.356 133.801 19.62 134.393 18.964C135.001 18.292 135.705 17.764 136.505 17.38C137.305 16.98 138.209 16.78 139.217 16.78C140.369 16.78 141.265 17.108 141.905 17.764C142.561 18.404 142.889 19.372 142.889 20.668C142.889 21.388 142.785 22.164 142.577 22.996C142.385 23.828 142.089 24.652 141.689 25.468C141.289 26.268 140.785 27.004 140.177 27.676C139.585 28.332 138.889 28.86 138.089 29.26C137.289 29.644 136.385 29.836 135.377 29.836C134.225 29.836 133.321 29.508 132.665 28.852C132.025 28.196 131.705 27.228 131.705 25.948Z" fill="#F44321"/>
</svg>
