<svg width="122" height="38" viewBox="0 0 122 38" fill="none" xmlns="http://www.w3.org/2000/svg">
<path d="M11.232 30.664C9.84 30.664 8.592 30.496 7.488 30.16C6.384 29.84 5.448 29.384 4.68 28.792C3.912 28.2 3.32 27.496 2.904 26.68C2.504 25.864 2.304 24.968 2.304 23.992C2.304 23.512 2.36 23 2.472 22.456C2.584 21.896 2.752 21.368 2.976 20.872C3.2 20.36 3.496 19.944 3.864 19.624C4.248 19.304 4.704 19.144 5.232 19.144C5.552 19.144 5.824 19.208 6.048 19.336C6.288 19.464 6.472 19.608 6.6 19.768C6.728 19.928 6.808 20.08 6.84 20.224C6.456 20.528 6.128 20.872 5.856 21.256C5.584 21.64 5.376 22.056 5.232 22.504C5.104 22.936 5.04 23.408 5.04 23.92C5.04 24.928 5.28 25.768 5.76 26.44C6.24 27.128 6.928 27.64 7.824 27.976C8.72 28.312 9.776 28.48 10.992 28.48C12.096 28.48 13.016 28.36 13.752 28.12C14.488 27.88 15.064 27.552 15.48 27.136C15.912 26.736 16.216 26.288 16.392 25.792C16.584 25.296 16.68 24.8 16.68 24.304L17.256 25H14.832C13.92 25 13.088 24.776 12.336 24.328C11.584 23.864 10.984 23.2 10.536 22.336C10.088 21.472 9.864 20.432 9.864 19.216C9.864 17.408 10.368 16 11.376 14.992C12.384 13.984 13.728 13.48 15.408 13.48C16.656 13.48 17.672 13.736 18.456 14.248C19.24 14.744 19.632 15.376 19.632 16.144V23.296C19.632 24.576 19.424 25.68 19.008 26.608C18.608 27.552 18.032 28.32 17.28 28.912C16.544 29.52 15.664 29.96 14.64 30.232C13.616 30.52 12.48 30.664 11.232 30.664ZM16.896 23.128V16.144C16.832 16 16.672 15.888 16.416 15.808C16.16 15.712 15.848 15.664 15.48 15.664C14.52 15.664 13.8 15.952 13.32 16.528C12.84 17.088 12.6 17.976 12.6 19.192C12.6 20.36 12.832 21.256 13.296 21.88C13.76 22.504 14.432 22.816 15.312 22.816H17.088L16.896 23.128ZM17.28 11.848C16.88 11.848 16.528 11.704 16.224 11.416C15.936 11.128 15.792 10.784 15.792 10.384C15.792 9.968 15.936 9.616 16.224 9.328C16.528 9.024 16.88 8.872 17.28 8.872C17.696 8.872 18.04 9.024 18.312 9.328C18.6 9.616 18.744 9.968 18.744 10.384C18.744 10.784 18.6 11.128 18.312 11.416C18.04 11.704 17.696 11.848 17.28 11.848ZM13.536 11.848C13.152 11.848 12.808 11.704 12.504 11.416C12.216 11.128 12.072 10.784 12.072 10.384C12.072 9.968 12.216 9.616 12.504 9.328C12.792 9.024 13.136 8.872 13.536 8.872C13.952 8.872 14.304 9.024 14.592 9.328C14.88 9.616 15.024 9.968 15.024 10.384C15.024 10.784 14.88 11.128 14.592 11.416C14.304 11.704 13.952 11.848 13.536 11.848ZM32.4195 25V22.816H34.5075V25H32.4195ZM27.6435 25C26.7155 25 25.8675 24.776 25.0995 24.328C24.3475 23.864 23.7555 23.2 23.3235 22.336C22.8915 21.472 22.6755 20.432 22.6755 19.216C22.6755 17.408 23.1715 16 24.1635 14.992C25.1715 13.984 26.5235 13.48 28.2195 13.48C29.4675 13.48 30.4755 13.736 31.2435 14.248C32.0275 14.744 32.4195 15.376 32.4195 16.144V25H29.7075V16.144C29.6435 16 29.4835 15.888 29.2275 15.808C28.9715 15.712 28.6355 15.664 28.2195 15.664C27.2915 15.664 26.5875 15.952 26.1075 16.528C25.6435 17.104 25.4115 18 25.4115 19.216C25.4115 20.368 25.6435 21.256 26.1075 21.88C26.5715 22.504 27.2435 22.816 28.1235 22.816H32.4195V25H27.6435ZM29.4915 30.496C29.1715 30.496 28.8995 30.432 28.6755 30.304C28.4515 30.192 28.2755 30.048 28.1475 29.872C28.0195 29.696 27.9395 29.552 27.9075 29.44C28.3715 29.056 28.7315 28.648 28.9875 28.216C29.2435 27.784 29.4275 27.296 29.5395 26.752C29.6515 26.224 29.7075 25.64 29.7075 25V22.816H32.4195V25C32.4195 25.64 32.3635 26.28 32.2515 26.92C32.1555 27.576 31.9875 28.176 31.7475 28.72C31.5235 29.264 31.2275 29.696 30.8595 30.016C30.4915 30.336 30.0355 30.496 29.4915 30.496ZM34.5075 25V22.816C34.6835 22.816 34.8035 22.912 34.8675 23.104C34.9475 23.296 34.9875 23.56 34.9875 23.896C34.9875 24.232 34.9475 24.504 34.8675 24.712C34.8035 24.904 34.6835 25 34.5075 25ZM34.5 25V22.816H35.58C35.996 22.816 36.332 22.696 36.588 22.456C36.86 22.216 37.06 21.912 37.188 21.544C37.316 21.16 37.38 20.784 37.38 20.416V16.168C37.38 15.784 37.484 15.464 37.692 15.208C37.916 14.936 38.268 14.8 38.748 14.8C39.228 14.8 39.572 14.936 39.78 15.208C40.004 15.464 40.116 15.784 40.116 16.168V20.416C40.116 21.296 39.916 22.08 39.516 22.768C39.132 23.456 38.596 24 37.908 24.4C37.236 24.8 36.46 25 35.58 25H34.5ZM41.916 25C41.052 25 40.276 24.8 39.588 24.4C38.9 24 38.356 23.456 37.956 22.768C37.572 22.08 37.38 21.296 37.38 20.416H40.116C40.116 20.784 40.18 21.152 40.308 21.52C40.436 21.888 40.636 22.2 40.908 22.456C41.18 22.696 41.516 22.816 41.916 22.816H42.372V25H41.916ZM49.956 25V22.816H50.556C50.972 22.816 51.316 22.696 51.588 22.456C51.86 22.216 52.06 21.912 52.188 21.544C52.316 21.16 52.38 20.784 52.38 20.416V14.848C52.38 14.464 52.484 14.144 52.692 13.888C52.916 13.616 53.26 13.48 53.724 13.48C54.204 13.48 54.548 13.616 54.756 13.888C54.98 14.144 55.092 14.464 55.092 14.848V20.416C55.092 21.296 54.892 22.08 54.492 22.768C54.108 23.456 53.58 24 52.908 24.4C52.236 24.8 51.452 25 50.556 25H49.956ZM49.404 25C48.54 25 47.764 24.8 47.076 24.4C46.388 24 45.844 23.456 45.444 22.768C45.06 22.08 44.868 21.296 44.868 20.416H47.604C47.604 20.8 47.668 21.176 47.796 21.544C47.924 21.912 48.124 22.216 48.396 22.456C48.668 22.696 49.004 22.816 49.404 22.816H49.956V25H49.404ZM42.372 25V22.816H43.068C43.484 22.816 43.82 22.696 44.076 22.456C44.348 22.216 44.548 21.912 44.676 21.544C44.804 21.16 44.868 20.784 44.868 20.416V15.592C44.868 15.208 44.98 14.888 45.204 14.632C45.428 14.36 45.772 14.224 46.236 14.224C46.716 14.224 47.06 14.36 47.268 14.632C47.492 14.888 47.604 15.208 47.604 15.592V20.416C47.604 21.296 47.404 22.08 47.004 22.768C46.62 23.456 46.084 24 45.396 24.4C44.724 24.8 43.948 25 43.068 25H42.372ZM56.916 25C56.036 25 55.252 24.8 54.564 24.4C53.892 24 53.356 23.456 52.956 22.768C52.572 22.08 52.38 21.296 52.38 20.416H55.092C55.092 20.784 55.156 21.16 55.284 21.544C55.412 21.912 55.612 22.216 55.884 22.456C56.156 22.696 56.5 22.816 56.916 22.816H57.972V25H56.916ZM57.972 25V22.816C58.164 22.816 58.292 22.912 58.356 23.104C58.42 23.296 58.452 23.56 58.452 23.896C58.452 24.232 58.42 24.504 58.356 24.712C58.292 24.904 58.164 25 57.972 25ZM34.5 25C34.324 25 34.204 24.904 34.14 24.712C34.06 24.504 34.02 24.232 34.02 23.896C34.02 23.56 34.06 23.296 34.14 23.104C34.204 22.912 34.324 22.816 34.5 22.816V25ZM57.9609 25V22.816H58.9209C59.3529 22.816 59.6969 22.696 59.9529 22.456C60.2249 22.216 60.4249 21.912 60.5529 21.544C60.6809 21.16 60.7449 20.784 60.7449 20.416V12.688C60.7449 12.144 60.6729 11.72 60.5289 11.416C60.3849 11.096 60.2169 10.856 60.0249 10.696C59.8489 10.536 59.6889 10.416 59.5449 10.336C59.5769 10.224 59.6569 10.08 59.7849 9.904C59.9129 9.712 60.1049 9.544 60.3609 9.4C60.6169 9.24 60.9289 9.16 61.2969 9.16C61.7129 9.16 62.0809 9.264 62.4009 9.472C62.7209 9.68 62.9769 9.992 63.1689 10.408C63.3609 10.824 63.4569 11.336 63.4569 11.944V20.416C63.4569 21.296 63.2569 22.08 62.8569 22.768C62.4729 23.456 61.9449 24 61.2729 24.4C60.6009 24.8 59.8169 25 58.9209 25H57.9609ZM57.9609 25C57.7849 25 57.6649 24.904 57.6009 24.712C57.5209 24.504 57.4809 24.232 57.4809 23.896C57.4809 23.56 57.5209 23.296 57.6009 23.104C57.6649 22.912 57.7849 22.816 57.9609 22.816V25ZM68.6659 25C68.1059 25 67.7379 24.84 67.5619 24.52C67.4019 24.184 67.3219 23.816 67.3219 23.416V12.688C67.3219 12.144 67.2499 11.72 67.1059 11.416C66.9619 11.096 66.7939 10.856 66.6019 10.696C66.4099 10.536 66.2499 10.416 66.1219 10.336C66.1539 10.224 66.2339 10.08 66.3619 9.904C66.4899 9.712 66.6819 9.544 66.9379 9.4C67.1939 9.24 67.5139 9.16 67.8979 9.16C68.2979 9.16 68.6579 9.264 68.9779 9.472C69.2979 9.68 69.5539 9.992 69.7459 10.408C69.9379 10.824 70.0339 11.336 70.0339 11.944V23.44C70.0339 23.824 69.9459 24.184 69.7699 24.52C69.5939 24.84 69.2259 25 68.6659 25Z" fill="#F44321"/>
<rect x="79" width="43" height="38" rx="14" fill="#F44321"/>
<path d="M110.5 15.5C106.5 29.5 92.5 28.5 90 15.5" stroke="white" stroke-linecap="round"/>
</svg>
