<svg width="16" height="14" viewBox="0 0 16 14" fill="none" xmlns="http://www.w3.org/2000/svg">
<mask id="path-1-outside-1_131_27" maskUnits="userSpaceOnUse" x="-0.954956" y="-1.8485" width="19" height="17" fill="black">
<rect fill="white" x="-0.954956" y="-1.8485" width="19" height="17"/>
<path d="M14.1278 1.27273C15.0132 2.02623 15.4841 2.98696 15.5407 4.1549C15.5972 5.32283 15.2204 6.31181 14.4104 7.12184L8.95688 12.7731C8.76851 12.9615 8.55187 13.0557 8.30698 13.0557C8.06209 13.0557 7.84546 12.9615 7.65708 12.7731L2.20356 7.12184C1.39354 6.31181 1.01679 5.32283 1.0733 4.1549C1.12981 2.98696 1.60076 2.02623 2.48613 1.27273C3.25848 0.613406 4.14385 0.330841 5.14225 0.425029C6.15948 0.50038 7.02602 0.905391 7.74185 1.64006L8.30698 2.20519L8.87211 1.64006C9.58795 0.905391 10.4451 0.50038 11.4435 0.425029C12.4607 0.330841 13.3555 0.613406 14.1278 1.27273Z"/>
</mask>
<path d="M14.1278 1.27273L12.8293 2.79386L12.8316 2.7958L14.1278 1.27273ZM14.4104 7.12184L12.9962 5.70762L12.9836 5.72022L12.9712 5.73303L14.4104 7.12184ZM8.95688 12.7731L10.3711 14.1874L10.3837 14.1748L10.3961 14.162L8.95688 12.7731ZM7.65708 12.7731L6.21791 14.162L6.23027 14.1748L6.24287 14.1874L7.65708 12.7731ZM2.20356 7.12184L3.64274 5.73303L3.63037 5.72022L3.61778 5.70762L2.20356 7.12184ZM1.0733 4.1549L-0.924362 4.05823L1.0733 4.1549ZM2.48613 1.27273L3.78237 2.79581L3.78465 2.79386L2.48613 1.27273ZM5.14225 0.425029L4.9544 2.41619L4.97443 2.41808L4.9945 2.41956L5.14225 0.425029ZM7.74185 1.64006L6.30939 3.03579L6.31845 3.04509L6.32764 3.05428L7.74185 1.64006ZM8.30698 2.20519L6.89277 3.61941L8.30698 5.03362L9.7212 3.61941L8.30698 2.20519ZM8.87211 1.64006L10.2863 3.05428L10.2955 3.04509L10.3046 3.03579L8.87211 1.64006ZM11.4435 0.425029L11.594 2.41936L11.6109 2.41808L11.6279 2.41651L11.4435 0.425029ZM12.8316 2.7958C13.2934 3.18882 13.513 3.63196 13.543 4.25156L17.5383 4.05823C17.4553 2.34195 16.733 0.863647 15.4241 -0.250353L12.8316 2.7958ZM13.543 4.25156C13.5729 4.86944 13.3981 5.30575 12.9962 5.70762L15.8246 8.53605C17.0428 7.31788 17.6215 5.77623 17.5383 4.05823L13.543 4.25156ZM12.9712 5.73303L7.51771 11.3843L10.3961 14.162L15.8496 8.51064L12.9712 5.73303ZM7.54267 11.3589C7.60337 11.2982 7.70635 11.2159 7.85567 11.1509C8.00826 11.0846 8.16534 11.0557 8.30698 11.0557V15.0557C9.13155 15.0557 9.84396 14.7145 10.3711 14.1874L7.54267 11.3589ZM8.30698 11.0557C8.44862 11.0557 8.60571 11.0846 8.75829 11.1509C8.90761 11.2159 9.0106 11.2982 9.07129 11.3589L6.24287 14.1874C6.77 14.7145 7.48241 15.0557 8.30698 15.0557V11.0557ZM9.09626 11.3843L3.64274 5.73303L0.764388 8.51064L6.21791 14.162L9.09626 11.3843ZM3.61778 5.70762C3.21591 5.30575 3.04107 4.86944 3.07096 4.25156L-0.924362 4.05823C-1.00749 5.77623 -0.428823 7.31788 0.78935 8.53605L3.61778 5.70762ZM3.07096 4.25156C3.10094 3.63196 3.32057 3.18882 3.78237 2.7958L1.18989 -0.250353C-0.119057 0.863647 -0.841316 2.34195 -0.924362 4.05823L3.07096 4.25156ZM3.78465 2.79386C4.15138 2.4808 4.50227 2.37353 4.9544 2.41619L5.33009 -1.56613C3.78543 -1.71185 2.36557 -1.25399 1.1876 -0.248403L3.78465 2.79386ZM4.9945 2.41956C5.52175 2.45862 5.93222 2.6487 6.30939 3.03579L9.17431 0.244332C8.11981 -0.837915 6.79722 -1.45786 5.28999 -1.56951L4.9945 2.41956ZM6.32764 3.05428L6.89277 3.61941L9.7212 0.790979L9.15606 0.225848L6.32764 3.05428ZM9.7212 3.61941L10.2863 3.05428L7.4579 0.225848L6.89277 0.790979L9.7212 3.61941ZM10.3046 3.03579C10.6894 2.64079 11.0945 2.45706 11.594 2.41936L11.2929 -1.5693C9.79565 -1.4563 8.48644 -0.830005 7.43965 0.244332L10.3046 3.03579ZM11.6279 2.41651C12.1112 2.37176 12.4703 2.4874 12.8293 2.79386L15.4264 -0.248403C14.2407 -1.26058 12.8102 -1.71007 11.2591 -1.56645L11.6279 2.41651Z" fill="#F44321" mask="url(#path-1-outside-1_131_27)"/>
</svg>
