<svg width="17" height="11" viewBox="0 0 17 11" fill="none" xmlns="http://www.w3.org/2000/svg">
<path d="M16.4814 4.83984C16.5361 4.96745 16.5634 5.10417 16.5634 5.25C16.5634 5.39583 16.5361 5.53255 16.4814 5.66016C15.7158 7.11849 14.6402 8.29427 13.2548 9.1875C11.8694 10.0625 10.3473 10.5 8.68842 10.5C7.59467 10.5 6.53737 10.2995 5.51654 9.89844C4.51394 9.47917 3.62071 8.91406 2.83685 8.20312C2.053 7.47396 1.40586 6.6263 0.895447 5.66016C0.840759 5.53255 0.813416 5.39583 0.813416 5.25C0.813416 5.10417 0.840759 4.96745 0.895447 4.83984C1.66107 3.38151 2.73659 2.21484 4.12201 1.33984C5.50743 0.446615 7.02956 0 8.68842 0C10.3473 0 11.8694 0.446615 13.2548 1.33984C14.6402 2.21484 15.7158 3.38151 16.4814 4.83984ZM8.68842 9.1875C9.78217 9.1875 10.7119 8.80469 11.4775 8.03906C12.2431 7.27344 12.6259 6.34375 12.6259 5.25C12.6259 4.15625 12.2431 3.22656 11.4775 2.46094C10.7119 1.69531 9.78217 1.3125 8.68842 1.3125C7.59467 1.3125 6.66498 1.69531 5.89935 2.46094C5.13373 3.22656 4.75092 4.15625 4.75092 5.25C4.75092 6.34375 5.13373 7.27344 5.89935 8.03906C6.66498 8.80469 7.59467 9.1875 8.68842 9.1875ZM8.68842 2.625C9.41758 2.625 10.0374 2.88021 10.5478 3.39062C11.0582 3.90104 11.3134 4.52083 11.3134 5.25C11.3134 5.96094 11.0582 6.58073 10.5478 7.10938C10.0374 7.61979 9.41758 7.875 8.68842 7.875C7.97748 7.875 7.35769 7.61979 6.82904 7.10938C6.31862 6.58073 6.06342 5.96094 6.06342 5.25C6.06342 5.01302 6.09987 4.78516 6.17279 4.56641C6.39154 4.73047 6.64675 4.8125 6.93842 4.8125C7.303 4.8125 7.61289 4.6849 7.8681 4.42969C8.12331 4.17448 8.25092 3.86458 8.25092 3.5C8.25092 3.20833 8.16888 2.95312 8.00482 2.73438C8.22357 2.66146 8.45144 2.625 8.68842 2.625Z" fill="#F44321"/>
</svg>
