<svg width="22" height="17" viewBox="0 0 22 17" fill="none" xmlns="http://www.w3.org/2000/svg">
<path fill-rule="evenodd" clip-rule="evenodd" d="M10.5349 5.78003C9.28991 5.78003 8.28491 6.78503 8.28491 8.03003C8.28491 9.27503 9.28991 10.28 10.5349 10.28C11.7799 10.28 12.7849 9.27503 12.7849 8.03003C12.7849 6.78503 11.7799 5.78003 10.5349 5.78003ZM6.78491 8.03003C6.78491 5.9566 8.46148 4.28003 10.5349 4.28003C12.6083 4.28003 14.2849 5.9566 14.2849 8.03003C14.2849 10.1034 12.6083 11.78 10.5349 11.78C8.46148 11.78 6.78491 10.1034 6.78491 8.03003Z" fill="#C2C2C2"/>
<path fill-rule="evenodd" clip-rule="evenodd" d="M0.81773 5.30345C3.2279 1.9727 6.73109 0 10.535 0C14.3391 0 17.8424 1.97289 20.2526 5.30395C20.8142 6.07793 21.07 7.07213 21.07 8.02503C21.07 8.97803 20.8141 9.97243 20.2523 10.7465C17.8421 14.0773 14.3389 16.05 10.535 16.05C6.7309 16.05 3.22755 14.0771 0.81737 10.746C0.25581 9.97203 0 8.97783 0 8.02503C0 7.07193 0.25591 6.07753 0.81773 5.30345ZM10.535 1.5C7.27909 1.5 4.20244 3.18439 2.03262 6.18323L2.03191 6.18423C1.69397 6.64973 1.5 7.31663 1.5 8.02503C1.5 8.73333 1.69397 9.40033 2.03191 9.86573L2.03262 9.86673C4.20244 12.8656 7.27909 14.55 10.535 14.55C13.7909 14.55 16.8675 12.8656 19.0374 9.86673L19.0381 9.86573C19.376 9.40033 19.57 8.73333 19.57 8.02503C19.57 7.31663 19.376 6.64973 19.0381 6.18423L19.0374 6.18323C16.8675 3.18439 13.7909 1.5 10.535 1.5Z" fill="#C2C2C2"/>
</svg>
