<svg width="23" height="19" viewBox="0 0 23 19" fill="none" xmlns="http://www.w3.org/2000/svg">
<path d="M21.6762 4.88541C22.2617 5.78629 22.3406 6.74347 21.9127 7.75696C21.4847 8.77045 20.7415 9.34476 19.683 9.47989C19.5253 9.50241 19.3677 9.51367 19.21 9.51367C18.2191 9.51367 17.397 9.14206 16.7439 8.39883C16.0682 9.14206 15.2349 9.51367 14.2439 9.51367C13.253 9.51367 12.4196 9.14206 11.744 8.39883C11.0683 9.14206 10.235 9.51367 9.24405 9.51367C8.25308 9.51367 7.41977 9.14206 6.74411 8.39883C6.09097 9.14206 5.25766 9.51367 4.24417 9.51367C4.10904 9.51367 3.96265 9.50241 3.80499 9.47989C2.74646 9.34476 2.00323 8.77045 1.57532 7.75696C1.1474 6.74347 1.22623 5.78629 1.8118 4.88541L4.00769 1.37198C4.21039 1.03415 4.51443 0.865234 4.91983 0.865234H18.5681C18.9735 0.865234 19.2776 1.03415 19.4803 1.37198L21.6762 4.88541ZM19.2438 10.5947C19.4465 10.5947 19.6492 10.5835 19.8519 10.5609C20.0096 10.5384 20.1897 10.4934 20.3924 10.4258V17.0811C20.3924 17.3738 20.2798 17.6216 20.0546 17.8243C19.8519 18.0495 19.6042 18.1621 19.3114 18.1621H4.17661C3.97391 18.1621 3.79373 18.1058 3.63608 17.9932C3.47842 17.9031 3.34329 17.7792 3.23068 17.6216C3.14059 17.4639 3.09555 17.2838 3.09555 17.0811V10.4258C3.29825 10.4934 3.47842 10.5384 3.63608 10.5609C3.83878 10.5835 4.04147 10.5947 4.24417 10.5947C4.53696 10.5947 4.87479 10.5497 5.25766 10.4596V13.8379H18.2303V10.4596C18.5907 10.5497 18.9285 10.5947 19.2438 10.5947Z" fill="#F44321"/>
</svg>
