<svg width="16" height="19" viewBox="0 0 16 19" fill="none" xmlns="http://www.w3.org/2000/svg">
<path d="M12.54 5.875H15.915V15.4375C15.915 16.2109 15.6338 16.8672 15.0713 17.4062C14.5322 17.9688 13.876 18.25 13.1025 18.25H2.97754C2.2041 18.25 1.53613 17.9688 0.973633 17.4062C0.43457 16.8672 0.165039 16.2109 0.165039 15.4375V5.875H3.54004V4.75C3.54004 3.50781 3.97363 2.45313 4.84082 1.58594C5.73145 0.695313 6.79785 0.25 8.04004 0.25C9.28223 0.25 10.3369 0.695313 11.2041 1.58594C12.0947 2.45313 12.54 3.50781 12.54 4.75V5.875ZM5.79004 4.75V5.875H10.29V4.75C10.29 4.14063 10.0674 3.61328 9.62207 3.16797C9.17676 2.72266 8.64941 2.5 8.04004 2.5C7.43066 2.5 6.90332 2.72266 6.45801 3.16797C6.0127 3.61328 5.79004 4.14063 5.79004 4.75ZM10.8174 8.72266C10.9814 8.88672 11.1807 8.96875 11.415 8.96875C11.6494 8.96875 11.8486 8.88672 12.0127 8.72266C12.1768 8.55859 12.2588 8.35938 12.2588 8.125C12.2588 7.89062 12.1768 7.69141 12.0127 7.52734C11.8486 7.36328 11.6494 7.28125 11.415 7.28125C11.1807 7.28125 10.9814 7.36328 10.8174 7.52734C10.6533 7.69141 10.5713 7.89062 10.5713 8.125C10.5713 8.35938 10.6533 8.55859 10.8174 8.72266ZM4.06738 8.72266C4.23145 8.88672 4.43066 8.96875 4.66504 8.96875C4.89941 8.96875 5.09863 8.88672 5.2627 8.72266C5.42676 8.55859 5.50879 8.35938 5.50879 8.125C5.50879 7.89062 5.42676 7.69141 5.2627 7.52734C5.09863 7.36328 4.89941 7.28125 4.66504 7.28125C4.43066 7.28125 4.23145 7.36328 4.06738 7.52734C3.90332 7.69141 3.82129 7.89062 3.82129 8.125C3.82129 8.35938 3.90332 8.55859 4.06738 8.72266Z" fill="#F44321"/>
</svg>
